<?xml version="1.0" encoding="UTF-8" standalone="no"?>
<!-- Created with Inkscape (http://www.inkscape.org/) -->

<svg
   width="740mm"
   height="320mm"
   viewBox="0 0 740 320"
   version="1.1"
   id="svg1"
   inkscape:version="1.3.1 (91b66b0783, 2023-11-16)"
   sodipodi:docname="ExtDaySumTitle.svg"
   inkscape:export-filename="ExtDaySumTitle.png"
   inkscape:export-xdpi="96"
   inkscape:export-ydpi="96"
   xmlns:inkscape="http://www.inkscape.org/namespaces/inkscape"
   xmlns:sodipodi="http://sodipodi.sourceforge.net/DTD/sodipodi-0.dtd"
   xmlns="http://www.w3.org/2000/svg"
   xmlns:svg="http://www.w3.org/2000/svg">
  <sodipodi:namedview
     id="namedview1"
     pagecolor="#505050"
     bordercolor="#eeeeee"
     borderopacity="1"
     inkscape:showpageshadow="0"
     inkscape:pageopacity="0"
     inkscape:pagecheckerboard="0"
     inkscape:deskcolor="#505050"
     inkscape:document-units="mm"
     inkscape:zoom="0.36569515"
     inkscape:cx="1453.3964"
     inkscape:cy="304.89877"
     inkscape:window-width="1920"
     inkscape:window-height="1017"
     inkscape:window-x="1912"
     inkscape:window-y="-8"
     inkscape:window-maximized="1"
     inkscape:current-layer="layer1"
     inkscape:export-bgcolor="#ffffff00" />
  <defs
     id="defs1">
    <filter
       style="color-interpolation-filters:sRGB"
       inkscape:label="Drop Shadow"
       id="filter229"
       x="-0.03282032"
       y="-0.25857658"
       width="1.0742853"
       height="1.5634664">
      <feFlood
         result="flood"
         in="SourceGraphic"
         flood-opacity="0.839216"
         flood-color="rgb(0,0,0)"
         id="feFlood228" />
      <feGaussianBlur
         result="blur"
         in="SourceGraphic"
         stdDeviation="3.100000"
         id="feGaussianBlur228" />
      <feOffset
         result="offset"
         in="blur"
         dx="2.500000"
         dy="1.700000"
         id="feOffset228" />
      <feComposite
         result="comp1"
         operator="in"
         in="flood"
         in2="offset"
         id="feComposite228" />
      <feComposite
         result="comp2"
         operator="over"
         in="SourceGraphic"
         in2="comp1"
         id="feComposite229" />
    </filter>
    <filter
       style="color-interpolation-filters:sRGB"
       inkscape:label="Drop Shadow"
       id="filter231"
       x="-0.054791952"
       y="-0.25857671"
       width="1.1240158"
       height="1.5634667">
      <feFlood
         result="flood"
         in="SourceGraphic"
         flood-opacity="0.839216"
         flood-color="rgb(0,0,0)"
         id="feFlood229" />
      <feGaussianBlur
         result="blur"
         in="SourceGraphic"
         stdDeviation="3.100000"
         id="feGaussianBlur229" />
      <feOffset
         result="offset"
         in="blur"
         dx="2.500000"
         dy="1.700000"
         id="feOffset229" />
      <feComposite
         result="comp1"
         operator="in"
         in="flood"
         in2="offset"
         id="feComposite230" />
      <feComposite
         result="comp2"
         operator="over"
         in="SourceGraphic"
         in2="comp1"
         id="feComposite231" />
    </filter>
  </defs>
  <g
     inkscape:label="Layer 1"
     inkscape:groupmode="layer"
     id="layer1"
     style="fill:#000000;fill-opacity:1">
    <rect
       style="fill:#adad52;fill-opacity:1;stroke-width:2.5183;stroke-linecap:round;stroke-linejoin:round;paint-order:stroke markers fill"
       id="rect1"
       width="740"
       height="320"
       x="0"
       y="0"
       ry="83.926918" />
    <g
       id="g3"
       inkscape:label="Title"
       transform="matrix(2.4372858,0,0,2.4372858,-80.869694,-33.155334)">
      <path
         d="m 58.207638,73.009892 c 2.315872,0 8.742417,-0.868452 8.742417,-3.994879 0,-1.157936 -0.463175,-3.126427 -1.505317,-3.126427 -1.505317,0 -4.226467,1.736904 -6.773926,1.736904 -3.936982,0 -3.821189,-1.910595 -3.821189,-5.152816 v -3.821188 c 0,-1.215833 0.347381,-1.736904 1.563214,-1.794801 l 6.658132,-0.231587 c 1.563214,-0.0579 1.852698,-1.331627 1.852698,-2.315872 0,-1.563214 -0.405278,-3.010634 -1.910595,-3.010634 l -6.889719,0.0579 c -0.868452,0 -1.27373,-0.578968 -1.27373,-1.736904 v -5.326506 c 0,-0.752658 0.521071,-1.389523 1.27373,-1.389523 l 8.163449,-0.231587 c 1.215833,-0.0579 1.852697,-1.621111 1.852697,-2.952737 0,-1.331627 -0.694761,-2.605356 -2.084284,-2.605356 -1.157936,0 -9.205592,0 -11.289877,0 -1.968491,0 -4.51595,1.100039 -4.51595,5.152815 v 23.679792 c 0,5.558092 4.110673,7.063409 9.95825,7.063409 z m -6.252855,-3.705395 c 0.347381,0.463174 0.289484,0.752658 0.0579,0.810555 -1.331626,0.173691 -2.547459,-2.663253 -2.72115,-4.110673 -0.115793,-0.636864 0.0579,-1.042142 0.289484,-1.042142 0.231588,-0.0579 0.405278,0.231587 0.521072,0.752658 0.17369,1.157936 0.926348,2.373769 1.852697,3.589602 z m 21.305998,3.647498 c 1.27373,0 2.489563,-0.521071 3.358015,-2.142181 l 5.152815,-9.495076 c 0.636865,-1.157936 0.868452,-1.563213 1.157936,-1.563213 0.289484,0 0.636865,0.694761 1.042142,1.389523 l 6.194958,11.000392 c 0.289484,0.521071 0.984246,0.636865 1.389523,0.636865 2.373769,0 4.052776,-1.794801 3.705396,-2.489562 L 87.734981,56.451407 c -1.100039,-1.968491 -1.563213,-2.663253 -1.563213,-2.952737 0,-0.289484 0.231587,-0.984245 0.926349,-2.142181 L 94.045733,40.2982 c 1.389523,-2.257976 -1.910595,-3.184324 -2.952737,-3.184324 -0.521071,0 -1.100039,0.231587 -1.44742,0.810555 l -5.905474,9.437178 c -0.578968,0.868452 -0.636865,1.27373 -0.810555,1.27373 -0.17369,0 -0.405278,-0.521071 -0.868452,-1.27373 l -4.110673,-7.121306 c -1.563214,-2.663253 -2.084285,-3.126427 -3.06853,-3.126427 -2.084285,0 -3.242221,1.331626 -3.242221,2.431665 0,1.157936 0.405277,2.084285 0.810555,2.779047 l 6.079164,10.074043 c 0.405278,0.636865 0.752658,1.331627 0.752658,1.794801 0,0.405278 -0.34738,1.157936 -0.926348,2.257975 l -7.06341,13.837336 c -0.17369,0.289484 -0.231587,0.578968 -0.231587,0.810555 0,0.868452 1.042142,1.852697 2.200078,1.852697 z M 90.340337,39.892922 c 0,0.231587 -0.231587,0.347381 -0.463174,0.347381 -0.347381,0 -0.636865,-0.405278 0,-1.44742 0.463174,-0.810555 1.215833,-0.984246 1.679007,-0.984246 0.405278,0 0.173691,0.289484 -0.347381,0.810555 -0.578968,0.521072 -0.868452,0.984246 -0.868452,1.27373 z m -16.905865,0.289484 c 0,0.405278 0.231587,1.27373 -0.115794,1.389523 -0.17369,0.0579 -0.289484,0 -0.463174,-0.289484 -0.578968,-1.100039 -0.0579,-3.010633 0.636864,-3.010633 0.231588,0 0.405278,0.0579 0.521072,0.463174 0.0579,0.289484 -0.578968,0.521071 -0.578968,1.44742 z m 18.526976,31.843241 c 0,0.231587 -0.347381,0.17369 -0.578968,0.17369 -0.926349,-0.115794 -1.852698,-2.084285 -1.794801,-2.663253 0,-0.231587 0.17369,-0.347381 0.289484,-0.347381 0.289484,0 0.926349,1.736904 1.44742,2.026388 0.463175,0.289484 0.694762,0.694762 0.636865,0.810556 z M 73.723956,71.678266 c 0.405277,0.521071 -0.173691,0.521071 -0.752659,0.405277 -0.752658,-0.17369 -1.389523,-1.215832 -0.868452,-1.7948 0.463175,-0.463175 0.926349,-0.463175 0.694762,0.115793 -0.173691,0.405278 0.694761,1.042143 0.926349,1.27373 z m 32.074804,1.100039 c 4.11068,0 4.51595,-1.505317 4.51595,-2.663253 0,-1.505317 -0.52107,-2.663253 -2.14218,-2.663253 l -0.92635,0.173691 c -0.17369,0 -0.28948,0 -0.46317,0 -0.81056,0 -0.92635,-1.621111 -0.92635,-5.847577 V 50.893314 h 2.02639 c 1.21583,0 1.67901,-1.100039 1.67901,-2.605356 0,-1.100039 -0.52107,-1.794801 -1.9106,-1.794801 h -1.7948 v -5.500196 c 0,-2.89484 -1.44742,-3.994879 -3.18432,-3.994879 -1.73691,0 -2.779049,0.926349 -2.779049,3.821189 v 5.673886 h -0.636865 c -1.389523,0 -1.794801,0.810556 -1.794801,2.142182 0,1.331626 0.636865,2.257975 1.794801,2.257975 h 0.636865 v 9.95825 c 0,6.021267 0,11.926741 5.905469,11.926741 z m -4.40015,-33.174867 c -0.17369,0.521071 -0.23159,1.679007 -0.52107,1.679007 -0.17369,0 -0.28949,-0.34738 -0.28949,-1.215833 0,-0.636864 0.46318,-2.257975 1.21584,-2.257975 0.63686,0 -0.1158,0.984246 -0.40528,1.794801 z m -2.779049,8.626623 c 0,0.694762 0.289484,1.736904 -0.0579,1.736904 -0.405277,0 -0.578968,-0.752658 -0.578968,-1.273729 0,-0.810555 0.289484,-1.505317 0.694762,-1.505317 0.115794,0 -0.0579,0.636865 -0.0579,1.042142 z m 4.458049,21.653404 c 0,0.231587 -0.28948,0.636865 -0.52107,0.636865 -0.81055,0 -1.62111,-2.605356 -1.62111,-3.242221 0,-0.405278 -0.0579,-1.27373 0.40528,-1.27373 0.23159,0 0.63687,0.347381 0.69476,0.984246 0.0579,1.100039 1.04214,2.605356 1.04214,2.89484 z m 22.86923,3.473808 c 5.15282,0 9.43718,-3.936982 9.43718,-8.626623 0,-2.431666 -1.15794,-3.99488 -2.89484,-3.99488 -1.56321,0 -2.66325,1.215833 -2.66325,3.068531 0,2.200078 -1.56322,3.879086 -3.53171,3.879086 -2.72115,0 -4.63174,-2.315872 -4.63174,-7.237101 0,-0.636864 0.23158,-0.810555 0.98424,-0.810555 7.00552,0 12.50571,-6.194957 12.85309,-12.910986 0.28949,-5.731784 -3.41591,-10.016147 -8.68452,-10.016147 -7.1792,0 -12.38991,8.047655 -12.38991,19.163841 0,10.479321 4.63174,17.484834 11.52146,17.484834 z m -7.52658,-28.195742 c -0.0579,0.0579 -0.23159,0.0579 -0.28949,-0.231587 -0.11579,-1.736904 3.06853,-6.137061 5.67389,-6.310752 0.40528,-0.0579 0.75266,0.173691 0.75266,0.463175 0.0579,0.231587 -0.34738,0.463174 -0.75266,0.521071 -2.31587,0.231587 -4.86333,5.558093 -5.3844,5.558093 z m 3.06853,9.379282 c -0.81056,-1.215833 1.38952,-12.332019 5.3265,-12.332019 1.7948,0 3.12643,1.794801 3.12643,4.284363 0,3.936983 -3.6475,8.279243 -7.64238,8.279243 -0.40528,0 -0.69476,-0.0579 -0.81055,-0.231587 z m -3.82119,-8.800314 c 0.17369,-0.0579 0.23158,0.115794 0.28948,0.289484 0.1158,0.521071 -0.23159,1.44742 -0.63686,1.44742 -0.1158,0.0579 -0.17369,-0.17369 -0.23159,-0.463174 -0.0579,-0.578968 0.23159,-1.215833 0.57897,-1.27373 z m 25.6483,27.037806 c 1.04214,0 3.6475,-0.289484 3.6475,-2.605356 v -12.85309 c 0,-7.816068 1.38952,-14.184716 4.68964,-14.184716 2.08428,0 2.95273,1.563214 2.95273,9.552972 v 18.121699 c 0,0.868452 0.86846,1.968491 2.95274,1.968491 2.08429,0 3.24222,-0.636865 3.24222,-1.794801 v -18.81646 c 0,-10.653011 -2.14218,-15.284756 -7.06341,-15.284756 -5.61599,0 -6.25285,5.963371 -6.83182,5.963371 -0.17369,0 -0.23159,-0.752658 -0.23159,-2.315872 v -0.810555 c 0,-2.026388 -1.7369,-2.605356 -3.18432,-2.605356 -2.25798,0 -2.77905,0.926348 -2.77905,4.284363 v 27.616774 c 0,2.779046 0.69476,3.763292 2.60536,3.763292 z m -1.44742,-29.816852 c -0.28949,0 -0.46318,-1.27373 -0.46318,-1.852698 0,-0.521071 0.23159,-3.242221 1.04215,-3.242221 0.11579,0 0.17369,0.289484 0.17369,0.463174 0,0.115794 -0.34738,4.631745 -0.75266,4.631745 z m 14.87948,28.137845 c 0,0.521071 -0.28949,0.810555 -0.52108,0.810555 -0.57896,0 -1.15793,-0.984246 -1.15793,-2.547459 0,-0.752659 0.11579,-1.44742 0.46317,-1.44742 0.34738,0 0.46318,0.17369 0.46318,1.389523 0,1.157936 0.75266,0.868452 0.75266,1.794801 z m -13.48996,0.17369 c 0,0.463175 -0.28948,0.810555 -0.46317,0.810555 -0.63687,0 -1.21584,-1.100039 -1.21584,-2.257975 0,-0.868452 0.17369,-1.505317 0.34738,-1.505317 0.23159,0 0.40528,0.463175 0.40528,1.215833 0,1.100039 0.92635,1.042143 0.92635,1.736904 z m 25.59043,1.505317 h 5.03702 c 9.78456,0 14.18472,-6.484442 14.18472,-17.36904 0,-10.710908 -4.28436,-18.700667 -10.07404,-18.700667 -4.11068,0 -5.38441,4.110673 -6.02127,4.110673 -0.23159,0 -0.17369,-0.752659 -0.17369,-1.157936 0,-1.621111 -0.98425,-2.547459 -2.66325,-2.547459 -2.20008,0 -3.12643,1.505316 -3.12643,4.921228 v 24.779831 c 0,4.51595 0.69476,5.96337 2.83694,5.96337 z m -0.75266,-30.453717 c 0,0.521071 -0.40527,0.926349 -0.63686,0.926349 -0.40528,0 -0.63687,-0.636865 -0.63687,-1.505317 0,-1.910595 1.04215,-3.358015 2.08429,-3.358015 0.40528,0 0.57897,0.0579 0.57897,0.289484 0,0.347381 -1.67901,1.215833 -1.67901,2.663253 0,0.636865 0.28948,0.984246 0.28948,0.984246 z m 7.75818,25.185108 h -1.62112 c -1.44742,0 -1.62111,-0.231587 -1.62111,-2.084285 V 47.361609 c 0,-3.06853 2.14219,-5.037021 3.99488,-5.037021 3.01064,0 4.80544,5.731783 4.80544,13.258367 0,7.352894 -2.14218,11.926741 -5.55809,11.926741 z m -8.33714,1.042143 c -0.46318,0 -0.52108,-1.042143 -0.52108,-4.34226 0,-2.257976 0.23159,-2.431666 0.40528,-2.431666 0.23159,0 0.46318,0.231587 0.46318,2.431666 0,0.694761 0,4.34226 -0.34738,4.34226 z m 0,0.810555 c 0.40527,0 0.40527,0.115793 0.40527,0.636865 0,0.405277 -0.17369,0.752658 -0.34738,0.752658 -0.23158,0 -0.52107,-0.115794 -0.52107,-0.752658 0,-0.347381 0.17369,-0.636865 0.46318,-0.636865 z m 36.35918,3.994879 c 5.15281,0 9.43717,-3.936982 9.43717,-8.626623 0,-2.431666 -1.15793,-3.99488 -2.89484,-3.99488 -1.56321,0 -2.66325,1.215833 -2.66325,3.068531 0,2.200078 -1.56321,3.879086 -3.5317,3.879086 -2.72115,0 -4.63175,-2.315872 -4.63175,-7.237101 0,-0.636864 0.23159,-0.810555 0.98425,-0.810555 7.00551,0 12.50571,-6.194957 12.85309,-12.910986 0.28948,-5.731784 -3.41591,-10.016147 -8.68452,-10.016147 -7.17921,0 -12.38992,8.047655 -12.38992,19.163841 0,10.479321 4.63175,17.484834 11.52147,17.484834 z M 196.3494,45.161531 c -0.0579,0.0579 -0.23159,0.0579 -0.28948,-0.231587 -0.1158,-1.736904 3.06853,-6.137061 5.67388,-6.310752 0.40528,-0.0579 0.75266,0.173691 0.75266,0.463175 0.0579,0.231587 -0.34738,0.463174 -0.75266,0.521071 -2.31587,0.231587 -4.86333,5.558093 -5.3844,5.558093 z m 3.06853,9.379282 c -0.81055,-1.215833 1.38953,-12.332019 5.32651,-12.332019 1.7948,0 3.12643,1.794801 3.12643,4.284363 0,3.936983 -3.6475,8.279243 -7.64238,8.279243 -0.40528,0 -0.69476,-0.0579 -0.81056,-0.231587 z m -3.82119,-8.800314 c 0.17369,-0.0579 0.23159,0.115794 0.28949,0.289484 0.11579,0.521071 -0.23159,1.44742 -0.63687,1.44742 -0.11579,0.0579 -0.17369,-0.17369 -0.23158,-0.463174 -0.0579,-0.578968 0.23158,-1.215833 0.57896,-1.27373 z m 25.59041,27.037806 h 5.03702 c 9.78456,0 14.18471,-6.484442 14.18471,-17.36904 0,-10.710908 -4.28436,-18.700667 -10.07404,-18.700667 -4.11067,0 -5.3844,4.110673 -6.02127,4.110673 -0.23158,0 -0.17369,-0.752659 -0.17369,-1.157936 0,-1.621111 -0.98424,-2.547459 -2.66325,-2.547459 -2.20008,0 -3.12643,1.505316 -3.12643,4.921228 v 24.779831 c 0,4.51595 0.69477,5.96337 2.83695,5.96337 z m -0.75266,-30.453717 c 0,0.521071 -0.40528,0.926349 -0.63687,0.926349 -0.40527,0 -0.63686,-0.636865 -0.63686,-1.505317 0,-1.910595 1.04214,-3.358015 2.08428,-3.358015 0.40528,0 0.57897,0.0579 0.57897,0.289484 0,0.347381 -1.67901,1.215833 -1.67901,2.663253 0,0.636865 0.28949,0.984246 0.28949,0.984246 z m 7.75817,25.185108 h -1.62111 c -1.44742,0 -1.62111,-0.231587 -1.62111,-2.084285 V 47.361609 c 0,-3.06853 2.14218,-5.037021 3.99488,-5.037021 3.01063,0 4.80543,5.731783 4.80543,13.258367 0,7.352894 -2.14218,11.926741 -5.55809,11.926741 z m -8.33714,1.042143 c -0.46317,0 -0.52107,-1.042143 -0.52107,-4.34226 0,-2.257976 0.23159,-2.431666 0.40528,-2.431666 0.23158,0 0.46317,0.231587 0.46317,2.431666 0,0.694761 0,4.34226 -0.34738,4.34226 z m 0,0.810555 c 0.40528,0 0.40528,0.115793 0.40528,0.636865 0,0.405277 -0.17369,0.752658 -0.34738,0.752658 -0.23159,0 -0.52107,-0.115794 -0.52107,-0.752658 0,-0.347381 0.17369,-0.636865 0.46317,-0.636865 z m 49.27015,3.415911 H 272.31 c 7.29499,0 13.60575,-7.526584 13.60575,-18.874357 0,-10.653011 -6.19496,-16.905866 -12.7952,-16.905866 h -2.60535 c -3.5896,0 -6.65813,1.679007 -6.65813,5.905474 v 24.779831 c 0,3.994879 2.48956,5.094918 5.2686,5.094918 z m 2.14219,-5.558093 c -0.52108,0 -0.81056,-0.521071 -0.81056,-2.084285 V 44.987841 c 0,-1.910595 0.28948,-2.315872 1.62111,-2.315872 h 0.86845 c 3.6475,0 6.25286,3.763292 6.25286,11.058289 0,8.163448 -3.12643,13.489954 -7.17921,13.489954 z m -5.61599,0.752659 c -0.57897,0 -0.52108,-1.10004 -0.52108,-4.515951 0,-2.315872 0.28949,-3.184324 0.52108,-3.184324 0.23158,0 0.34738,0.984246 0.34738,3.184324 0,0.752659 0.28948,4.515951 -0.34738,4.515951 z m -0.0579,0.810555 c 0.40528,0 0.46317,0.115793 0.46317,0.636865 0,0.463174 -0.17369,1.042142 -0.40527,1.042142 -0.23159,0 -0.46318,-0.405278 -0.46318,-1.042142 0,-0.347381 0.1158,-0.636865 0.40528,-0.636865 z m 33.11699,4.458053 c 5.38441,0 6.48445,-7.063409 7.17921,-7.063409 0.17369,0 0.28948,0.521071 0.28948,1.505317 0,3.24222 1.27373,5.558092 3.12643,5.558092 1.62111,0 2.77904,-1.852697 2.77904,-4.573847 0,-1.44742 -0.34738,-4.573847 -0.34738,-7.700274 V 38.503399 c 0,-1.042143 -1.15793,-1.852698 -2.60535,-1.852698 -2.89484,0 -2.37377,3.358015 -2.83695,3.358015 -0.46317,0 -1.679,-3.415912 -6.07916,-3.184324 -6.13706,0.34738 -9.72666,7.352893 -9.72666,19.105944 0,10.826702 3.06853,17.311143 8.22134,17.311143 z m 8.91611,-32.711692 c -0.23159,0 -0.40528,-0.463175 -0.40528,-1.042143 0,-1.215832 0.81056,-2.084284 1.21584,-2.084284 0.11579,0 0.23158,0.0579 0.23158,0.289484 0,0.34738 -0.28948,0.926348 -0.52107,1.679007 -0.11579,0.521071 -0.23158,1.157936 -0.52107,1.157936 z m -7.52658,27.037806 c -1.73691,0 -3.41591,-6.194958 -3.41591,-12.505709 0,-7.06341 2.08428,-12.910987 4.63174,-12.910987 2.14218,0 4.05278,4.34226 4.05278,9.437179 0,6.542338 -3.12643,15.979517 -5.26861,15.979517 z m -4.16857,3.300118 c -0.63687,0 -1.73691,-1.679008 -2.31587,-3.242221 -0.52108,-1.505317 -0.46318,-2.72115 -0.1158,-2.72115 0.46318,0 0.63687,1.621111 0.86845,2.257975 0.34738,1.215833 1.9106,2.72115 2.02639,3.126428 0.0579,0.231587 -0.17369,0.578968 -0.46317,0.578968 z m 13.25836,0.636864 c 0,0.231588 -0.28948,0.521072 -0.57896,0.521072 -0.69476,0 -1.56322,-1.621111 -1.56322,-2.836944 0,-0.463174 0.1158,-0.694761 0.40528,-0.694761 0.40528,0 0.40528,0.636865 0.40528,0.636865 0,1.157936 1.33162,1.852697 1.33162,2.373768 z m -11.81094,0.289484 c -0.23159,0 -0.46318,-0.405277 -0.46318,-0.752658 0,-0.405278 0.28949,-0.694762 0.69476,-0.694762 0.92635,0 0.28949,1.44742 -0.23158,1.44742 z m 29.64323,1.331627 c 6.42655,0 10.42143,-3.763292 10.42143,-10.537218 V 41.108755 c 0,-3.300118 -2.31587,-4.284363 -3.53171,-4.284363 -1.62111,0 -2.77904,1.157936 -2.77904,3.589601 v 6.194958 c 0,4.573847 -2.72115,9.089798 -5.5002,9.089798 -1.67901,0 -2.83694,-0.578968 -2.83694,-6.310752 v -9.668765 c 0,-1.679008 -1.33163,-2.779047 -3.5896,-2.779047 -1.73691,0 -2.60536,1.215833 -2.60536,2.605356 v 9.263488 c 0,9.842457 4.40016,12.505709 8.10555,12.505709 4.45806,0 6.36865,-4.573847 6.42655,-4.573847 0.11579,0 0.11579,1.44742 0.11579,2.315872 v 2.547459 c 0,4.458054 -1.10004,6.600236 -4.22647,6.600236 -2.08428,0 -3.87908,-1.157936 -3.87908,-3.242221 0,-1.100039 -1.10004,-1.736904 -2.25798,-1.736904 -1.15793,0 -1.96849,1.389523 -1.96849,3.184324 0,3.994879 3.5896,6.716029 8.10555,6.716029 z m -8.16344,-35.027565 c -0.40528,0.347381 -0.81056,2.373769 -1.27373,2.373769 -0.1158,0 -0.28949,-0.115794 -0.28949,-0.752658 0,-0.405278 0.52107,-2.315872 1.33163,-2.315872 0.28948,0 0.52107,0.463174 0.23159,0.694761 z m 13.95313,0.868452 c -0.40528,0.636865 -0.34739,1.563214 -0.63687,1.563214 -0.17369,0 -0.40528,-0.347381 -0.40528,-0.636865 0,-0.868452 0.92635,-2.489562 1.56322,-2.489562 0.46317,0 -0.1158,0.926348 -0.52107,1.563213 z m -12.6794,18.121699 c 0.23158,0.231587 0.57896,0.636865 0.57896,0.984246 0,0.405277 -0.28948,0.578968 -0.40527,0.578968 -0.52108,0 -1.9685,-2.663253 -1.9685,-3.589602 0,-0.636865 0,-1.100039 0.28949,-1.100039 0.11579,0 0.17369,0.636865 0.46317,1.44742 0.23159,0.578968 0.57897,1.215833 1.04215,1.679007 z m -0.28949,11.058289 c -0.17369,0 -0.23159,-0.636865 -0.23159,-1.44742 0,-1.215833 0.63687,-2.779046 1.21584,-2.779046 0.40527,0 0.11579,1.100039 0,1.331626 -0.63687,1.331626 -0.23159,2.89484 -0.98425,2.89484 z"
         id="text2"
         style="font-size:57.8968px;line-height:0.65;font-family:'Sunny Spells';-inkscape-font-specification:'Sunny Spells';text-align:center;letter-spacing:2.95274px;text-anchor:middle;fill:#e6cc56;stroke:#000000;stroke-width:4.10292;stroke-linecap:round;stroke-linejoin:round;stroke-dashoffset:1.20784;paint-order:stroke markers fill;filter:url(#filter229)"
         transform="matrix(0.87093099,0,0,0.94649638,17.142678,7.3564317)"
         aria-label="Extended Day" />
      <path
         d="m 117.69494,120.23486 c 5.61599,0 9.61087,-3.82119 9.61087,-9.26349 0,-2.95273 -1.62111,-5.61599 -6.65813,-10.7688 -4.11068,-4.226468 -5.26861,-6.079165 -5.26861,-8.452934 0,-1.910594 0.75266,-2.779046 2.43166,-2.779046 1.67901,0 2.66326,0.868452 2.72115,2.431665 0.0579,1.331627 1.38953,2.142182 2.31587,2.142182 1.9685,0 3.53171,-2.257975 3.53171,-4.573847 0,-2.54746 -4.34226,-5.384403 -8.33714,-5.384403 -5.67389,0 -9.20559,3.242221 -9.20559,8.51083 0,3.126427 2.14218,6.484442 7.70027,12.042533 2.08429,2.08429 4.28437,4.11067 4.28437,7.41079 0,2.48956 -1.27373,3.76329 -3.7054,3.76329 -2.37377,0 -3.35801,-1.21583 -3.35801,-4.05277 0,-2.02639 -0.52107,-2.83695 -1.8527,-2.89484 -2.08429,-0.1158 -3.6475,1.62111 -3.6475,3.99488 0,4.05277 4.63174,7.87396 9.43718,7.87396 z m -5.5002,-31.959032 c -0.46317,0.752658 -0.57896,1.505317 -0.98424,1.44742 -0.23159,0 -0.34738,-0.115794 -0.34738,-0.347381 0.11579,-1.331626 2.43166,-4.110673 3.41591,-3.994879 0.23159,0 0,0.636865 -0.57897,1.042142 -0.57897,0.463175 -1.21583,1.331627 -1.50532,1.852698 z m -0.92635,2.605356 c -0.0579,0.231587 -0.23158,0.405278 -0.40527,0.405278 -0.28949,-0.0579 -0.40528,-0.173691 -0.40528,-0.347381 0,-0.173691 0.23159,-0.463175 0.46317,-0.463175 0.17369,0 0.34738,0.173691 0.34738,0.405278 z m -0.86845,21.363916 c -0.40528,1.04215 0,1.96849 -0.40528,1.96849 -0.17369,0 -0.34738,-0.28948 -0.46317,-0.57896 -0.57897,-1.8527 0.40528,-4.11068 1.67901,-3.99488 0.17369,0 0.17369,0.11579 0.17369,0.28948 -0.0579,0.63687 -0.57897,1.27373 -0.98425,2.31587 z m 38.84878,7.46869 c 1.67901,0 3.35802,-0.63686 3.35802,-4.34226 V 88.333725 c 0,-3.300118 -1.67901,-4.34226 -3.41592,-4.34226 -1.7948,0 -2.72115,1.215833 -2.72115,3.647498 v 18.469077 c 0,3.24222 -2.72115,7.98976 -5.50019,7.98976 -1.67901,0 -2.83694,-1.8527 -2.83694,-4.45805 V 86.944202 c 0,-1.679008 -1.73691,-2.952737 -3.41592,-2.952737 -1.56321,0 -2.77904,0.984245 -2.77904,2.779046 v 23.448209 c 0,5.90547 3.12642,9.49507 8.10555,9.49507 2.89484,0 4.80543,-2.37377 5.84758,-3.76329 0.52107,-0.63687 0.69476,-1.10004 0.92635,-1.10004 0.17369,0 0.23158,0.46317 0.23158,1.44742 0,1.91059 0.57897,3.41591 2.20008,3.41591 z m -0.75266,-34.043318 c -0.63686,0.636865 -0.75266,1.794801 -1.04214,1.794801 -0.23159,0 -0.40528,-0.0579 -0.40528,-0.578968 0,-0.868452 0.69476,-2.200079 1.27373,-2.200079 0.46318,0 0.81056,0.347381 0.17369,0.984246 z m -14.24261,-0.521071 c 0,0.405277 -0.92635,2.257975 -1.38952,2.257975 -0.1158,0 -0.28949,-0.231587 -0.28949,-0.578968 0,-0.868452 1.04214,-2.084285 1.44742,-2.084285 0.0579,0 0.23159,0.0579 0.23159,0.405278 z m 2.43167,31.553759 c 0,0.40527 -0.23159,0.69476 -0.46318,0.69476 -0.86845,0 -2.66325,-2.54746 -2.66325,-3.6475 0,-0.46317 0.11579,-0.75266 0.46317,-0.75266 0.28949,0 0.46318,0.57897 0.75266,1.38953 0.46317,1.38952 1.96849,1.50531 1.9106,2.31587 z m 11.86884,0 c 0.0579,1.04214 0.75266,2.31587 0.40528,2.31587 -0.52107,0 -1.10004,-1.50532 -1.10004,-2.48956 0,-0.63687 0.11579,-1.21584 0.40528,-1.21584 0.28948,0 0.23158,0.63687 0.28948,1.38953 z m 11.75307,3.01063 c 1.679,0 3.12642,-1.15794 3.12642,-2.60536 v -12.85308 c 0,-2.83695 0.0579,-14.763689 4.22647,-14.763689 3.06853,0 2.77905,8.395036 2.77905,10.13194 v 17.890109 c 0,1.8527 0.69476,2.20008 2.54746,2.20008 1.85269,0 3.30011,-0.69476 3.30011,-1.7948 0,-1.33163 -0.28948,-9.90035 0.17369,-17.48483 0.34739,-6.426549 0.92635,-10.884602 3.7054,-10.884602 3.24222,0 2.95274,8.221345 2.95274,10.074043 v 18.584869 c 0,1.15794 0.92635,1.50532 2.43166,1.50532 1.50532,0 3.35802,-0.52107 3.35802,-1.56321 V 99.10253 c 0,-8.68452 -1.38953,-15.284756 -7.70028,-15.284756 -4.92123,0 -5.67388,5.61599 -6.19496,5.61599 -0.52107,0 -1.56321,-5.61599 -5.84757,-5.61599 -5.03702,0 -5.55809,5.673887 -5.90548,5.673887 -0.34738,0 0.0579,-5.4423 -3.06853,-5.4423 -2.48956,0 -2.48956,2.605357 -2.48956,4.284364 V 115.9505 c 0,1.96849 0.23159,3.76329 2.60536,3.76329 z m -1.21584,-30.222129 c -0.57896,0.0579 -0.69476,-1.042143 -0.69476,-1.621111 0,-0.463174 0.17369,-2.89484 1.27373,-2.89484 0.63687,0 -0.17369,1.679008 -0.17369,2.779047 0,0.636865 0.0579,1.679007 -0.40528,1.736904 z m 13.37417,28.890499 c 0,0.40528 -0.23159,0.69477 -0.52108,0.69477 -0.75265,0 -0.98424,-1.33163 -0.98424,-2.25798 0,-0.23159 -0.0579,-1.96849 0.28948,-1.96849 0.52107,0 0.46318,1.62111 0.46318,1.91059 0,0.86846 0.75266,0.86846 0.75266,1.62111 z m 12.5057,-0.0579 c 0,0.17369 -0.17369,0.63686 -0.46317,0.63686 -0.75266,0 -0.92635,-2.14218 -0.92635,-2.66325 0,-0.23159 0,-1.44742 0.34738,-1.44742 0.46318,0 0.40528,1.10004 0.40528,1.38952 0,0.86845 0.63686,1.33163 0.63686,2.08429 z m -24.77983,0 c 0,0.34738 -0.17369,0.57897 -0.52107,0.57897 -0.75266,0 -1.10004,-1.56322 -1.10004,-2.14219 0,-0.52107 0,-1.50531 0.34738,-1.50531 0.52108,0 0.23159,1.62111 0.46318,1.91059 0.40528,0.52107 0.81055,0.34738 0.81055,1.15794 z m 36.88025,1.38952 c 1.679,0 3.12642,-1.15794 3.12642,-2.60536 v -12.85308 c 0,-2.83695 0.0579,-14.763689 4.22647,-14.763689 3.06853,0 2.77905,8.395036 2.77905,10.13194 V 117.5137 c 0,1.8527 0.69476,2.20008 2.54746,2.20008 1.85269,0 3.30011,-0.69476 3.30011,-1.7948 0,-1.33163 -0.28948,-9.90035 0.1737,-17.48483 0.34738,-6.426549 0.92634,-10.884602 3.70539,-10.884602 3.24222,0 2.95274,8.221345 2.95274,10.074043 v 18.584869 c 0,1.15794 0.92635,1.50532 2.43166,1.50532 1.50532,0 3.35802,-0.52107 3.35802,-1.56321 V 99.10253 c 0,-8.68452 -1.38953,-15.284756 -7.70028,-15.284756 -4.92123,0 -5.67388,5.61599 -6.19495,5.61599 -0.52108,0 -1.56322,-5.61599 -5.84758,-5.61599 -5.03702,0 -5.55809,5.673887 -5.90548,5.673887 -0.34738,0 0.0579,-5.4423 -3.06853,-5.4423 -2.48956,0 -2.48956,2.605357 -2.48956,4.284364 V 115.9505 c 0,1.96849 0.23159,3.76329 2.60536,3.76329 z m -1.21584,-30.222129 c -0.57896,0.0579 -0.69476,-1.042143 -0.69476,-1.621111 0,-0.463174 0.17369,-2.89484 1.27373,-2.89484 0.63687,0 -0.17369,1.679008 -0.17369,2.779047 0,0.636865 0.0579,1.679007 -0.40528,1.736904 z m 13.37417,28.890499 c 0,0.40528 -0.23159,0.69477 -0.52108,0.69477 -0.75265,0 -0.98424,-1.33163 -0.98424,-2.25798 0,-0.23159 -0.0579,-1.96849 0.28948,-1.96849 0.52107,0 0.46318,1.62111 0.46318,1.91059 0,0.86846 0.75266,0.86846 0.75266,1.62111 z m 12.5057,-0.0579 c 0,0.17369 -0.17369,0.63686 -0.46317,0.63686 -0.75266,0 -0.92635,-2.14218 -0.92635,-2.66325 0,-0.23159 0,-1.44742 0.34738,-1.44742 0.46318,0 0.40528,1.10004 0.40528,1.38952 0,0.86845 0.63686,1.33163 0.63686,2.08429 z m -24.77983,0 c 0,0.34738 -0.17369,0.57897 -0.52107,0.57897 -0.75266,0 -1.10004,-1.56322 -1.10004,-2.14219 0,-0.52107 0,-1.50531 0.34738,-1.50531 0.52108,0 0.23159,1.62111 0.46318,1.91059 0.40528,0.52107 0.81055,0.34738 0.81055,1.15794 z m 45.15948,1.96849 c 5.15282,0 9.43718,-3.93698 9.43718,-8.62662 0,-2.43167 -1.15793,-3.99488 -2.89484,-3.99488 -1.56321,0 -2.66325,1.21583 -2.66325,3.06853 0,2.20008 -1.56322,3.87908 -3.53171,3.87908 -2.72115,0 -4.63174,-2.31587 -4.63174,-7.2371 0,-0.63686 0.23159,-0.81055 0.98424,-0.81055 7.00552,0 12.50571,-6.19496 12.85309,-12.91099 0.28949,-5.731783 -3.41591,-10.016146 -8.68452,-10.016146 -7.1792,0 -12.38991,8.047655 -12.38991,19.163846 0,10.47932 4.63174,17.48483 11.52146,17.48483 z m -7.52658,-28.195743 c -0.0579,0.0579 -0.23159,0.0579 -0.28949,-0.231587 -0.11579,-1.736904 3.06853,-6.137061 5.67389,-6.310752 0.40528,-0.0579 0.75266,0.173691 0.75266,0.463175 0.0579,0.231587 -0.34738,0.463174 -0.75266,0.521071 -2.31587,0.231587 -4.86333,5.558093 -5.3844,5.558093 z m 3.06853,9.379283 c -0.81056,-1.21583 1.38952,-12.33202 5.3265,-12.33202 1.79481,0 3.12643,1.794801 3.12643,4.284363 0,3.936983 -3.6475,8.279247 -7.64238,8.279247 -0.40527,0 -0.69476,-0.0579 -0.81055,-0.23159 z m -3.82119,-8.800315 c 0.17369,-0.0579 0.23159,0.115793 0.28948,0.289484 0.1158,0.521071 -0.23158,1.44742 -0.63686,1.44742 -0.11579,0.0579 -0.17369,-0.173691 -0.23159,-0.463175 -0.0579,-0.578968 0.23159,-1.215832 0.57897,-1.273729 z m 25.18513,27.037805 c 1.679,0 3.5896,-0.86845 3.5896,-3.18432 v -15.74793 c 0,-4.805438 2.37377,-11.174086 5.50019,-11.174086 1.56322,0 2.14219,-1.679007 2.14219,-3.184324 0,-1.44742 -0.98425,-2.489562 -2.54746,-2.489562 -3.47381,0 -4.74754,3.821189 -5.15282,4.863331 -0.11579,0.289484 -0.11579,0.578968 -0.28948,0.578968 -0.23159,0 -0.17369,-0.463174 -0.17369,-1.273729 0,-2.663253 -1.15794,-4.16857 -2.89484,-4.16857 -2.02639,0 -2.77905,1.27373 -2.77905,5.442299 V 116.0084 c 0,2.31587 0.69476,3.70539 2.60536,3.70539 z M 257.9789,86.365234 c -0.0579,0.289484 -0.0579,1.563213 -0.40527,1.563213 -0.17369,0 -0.40528,-0.405277 -0.40528,-1.215833 0,-0.810555 0.52107,-1.852697 0.86845,-1.852697 0.57897,0 0.0579,0.926349 -0.0579,1.505317 z m 0,30.453716 c 0.17369,0.75266 0.57897,1.21583 0.57897,1.44742 0,0.40528 -0.23159,0.40528 -0.40528,0.40528 -0.52107,0 -0.98424,-1.27373 -0.98424,-2.66325 0,-0.57897 0.11579,-0.98425 0.28948,-0.98425 0.23159,0 0.28949,0.86845 0.52107,1.7948 z m 20.3218,-3.5896 c 2.72115,0 3.18432,-5.26861 3.18432,-16.037415 0,-11.810947 -0.40528,-13.142574 -2.20008,-13.142574 -3.5317,0 -3.5896,0.578968 -3.5896,15.516343 0,10.595116 0.11579,13.663646 2.60536,13.663646 z m -0.75266,-27.848362 c 0.63686,0 0.23158,1.44742 0.17369,2.779046 -0.0579,0.926349 0.40528,2.257976 -0.52107,2.257976 -0.52107,0 -0.57897,-1.215833 -0.57897,-2.200079 0,-1.910594 0.63686,-2.836943 0.92635,-2.836943 z m 0.81055,34.795982 c 1.56322,0 2.72115,-0.86846 2.72115,-2.66326 0,-1.62111 -0.98424,-3.01063 -2.72115,-3.01063 -1.679,0 -2.43166,1.56321 -2.43166,3.01063 0,1.62111 0.98424,2.66326 2.43166,2.66326 z m -1.04214,-3.01064 c -0.0579,0.46318 -0.11579,1.21583 -0.40528,1.21583 -0.17369,0 -0.28948,-0.28948 -0.28948,-0.57896 0,-0.86846 0.40528,-2.31588 0.92635,-2.31588 0.40528,0 -0.17369,0.81056 -0.23159,1.67901 z"
         id="text3"
         style="font-size:57.8968px;line-height:0.65;font-family:'Sunny Spells';-inkscape-font-specification:'Sunny Spells';text-align:center;letter-spacing:2.95274px;text-anchor:middle;fill:#e6cc56;stroke:#000000;stroke-width:4.10292;stroke-linecap:round;stroke-linejoin:round;stroke-dashoffset:1.25915;paint-order:stroke markers fill;filter:url(#filter231)"
         aria-label=" Summer!"
         transform="matrix(0.90792788,0,0,0.90792788,17.142678,7.3564317)" />
    </g>
  </g>
</svg>
