<?xml version="1.0" encoding="UTF-8" standalone="no"?>
<!-- Created with Inkscape (http://www.inkscape.org/) -->

<svg
   width="512"
   height="512"
   viewBox="0 0 512 512"
   version="1.1"
   id="svg1"
   inkscape:version="1.3.1 (91b66b0783, 2023-11-16)"
   sodipodi:docname="ExtendedDayIcon.svg"
   xmlns:inkscape="http://www.inkscape.org/namespaces/inkscape"
   xmlns:sodipodi="http://sodipodi.sourceforge.net/DTD/sodipodi-0.dtd"
   xmlns:xlink="http://www.w3.org/1999/xlink"
   xmlns="http://www.w3.org/2000/svg"
   xmlns:svg="http://www.w3.org/2000/svg">
  <sodipodi:namedview
     id="namedview1"
     pagecolor="#505050"
     bordercolor="#eeeeee"
     borderopacity="1"
     inkscape:showpageshadow="0"
     inkscape:pageopacity="0"
     inkscape:pagecheckerboard="0"
     inkscape:deskcolor="#505050"
     inkscape:document-units="px"
     inkscape:zoom="1.1338568"
     inkscape:cx="281.34065"
     inkscape:cy="239.44823"
     inkscape:window-width="1920"
     inkscape:window-height="1017"
     inkscape:window-x="1912"
     inkscape:window-y="-8"
     inkscape:window-maximized="1"
     inkscape:current-layer="layer1" />
  <defs
     id="defs1">
    <linearGradient
       id="linearGradient3"
       inkscape:collect="always">
      <stop
         style="stop-color:#709367;stop-opacity:1;"
         offset="0"
         id="stop3" />
      <stop
         style="stop-color:#829c78;stop-opacity:0;"
         offset="1"
         id="stop4" />
    </linearGradient>
    <rect
       x="39.923332"
       y="150.16653"
       width="432.15336"
       height="211.66696"
       id="rect3" />
    <radialGradient
       inkscape:collect="always"
       xlink:href="#linearGradient3"
       id="radialGradient4"
       cx="254.42598"
       cy="251.82524"
       fx="254.42598"
       fy="251.82524"
       r="198.16801"
       gradientTransform="matrix(1,0,0,0.99928622,0,0.17974859)"
       gradientUnits="userSpaceOnUse" />
  </defs>
  <g
     inkscape:label="Layer 1"
     inkscape:groupmode="layer"
     id="layer1">
    <path
       id="rect1"
       style="fill:#6f9466;stroke-width:7.55906"
       d="m 0,0 c 170.66667,0 341.33333,0 512,0 0,170.66667 0,341.33333 0,512 -170.66667,0 -341.33333,0 -512,0 C 0,341.33333 0,170.66667 0,0 Z" />
    <path
       id="rect2"
       style="fill:#6f9466;stroke-width:15.1181"
       d="m 39.923332,150.16653 c 144.051118,0 288.102228,0 432.153348,0 0,70.55565 0,141.1113 0,211.66695 -144.05112,0 -288.10223,0 -432.153348,0 0,-70.55565 0,-141.1113 0,-211.66695 z" />
    <path
       id="path3"
       style="fill:url(#radialGradient4);stroke-width:7.55906"
       d="M 452.59399,251.82524 C 458.66126,392.16474 292.2033,496.56642 168.4477,430.24275 39.315562,374.93718 16.896811,179.69173 130.864,97.006813 236.75964,4.6590237 422.28374,69.655593 447.62284,207.74851 l 4.97115,44.06431 v 0 z" />
    <path
       style="font-size:96px;line-height:0.65;font-family:'Sunny Spells';-inkscape-font-specification:'Sunny Spells';text-align:center;letter-spacing:-2.38px;text-anchor:middle;white-space:pre;fill:#ffff00;stroke-width:7.55906"
       d="m 72.769969,263.67453 c 3.84,0 14.496,-1.44 14.496,-6.624 0,-1.92 -0.768,-5.184 -2.496,-5.184 -2.496,0 -7.008,2.88 -11.232,2.88 -6.528,0 -6.336,-3.168 -6.336,-8.544 v -6.336 c 0,-2.016 0.576,-2.88 2.592,-2.976 l 11.04,-0.384 c 2.592,-0.096 3.072,-2.208 3.072,-3.84 0,-2.592 -0.672,-4.992 -3.168,-4.992 l -11.424,0.096 c -1.44,0 -2.112,-0.96 -2.112,-2.88 v -8.832 c 0,-1.248 0.864,-2.304 2.112,-2.304 l 13.536,-0.384 c 2.016,-0.096 3.072,-2.688 3.072,-4.896 0,-2.208 -1.152,-4.32 -3.456,-4.32 -1.92,0 -15.264,0 -18.72,0 -3.264,0 -7.488,1.824 -7.488,8.544 v 39.264 c 0,9.216 6.816,11.712 16.512,11.712 z m -10.368,-6.144 c 0.576,0.768 0.48,1.248 0.096,1.344 -2.208,0.288 -4.224,-4.416 -4.512,-6.816 -0.192,-1.056 0.096,-1.728 0.48,-1.728 0.384,-0.096 0.672,0.384 0.864,1.248 0.288,1.92 1.536,3.936 3.072,5.952 z m 28.051952,6.048 c 2.112,0 4.128,-0.864 5.568,-3.552 l 8.543999,-15.744 c 1.056,-1.92 1.44,-2.592 1.92,-2.592 0.48,0 1.056,1.152 1.728,2.304 l 10.272,18.24 c 0.48,0.864 1.632,1.056 2.304,1.056 3.936,0 6.72,-2.976 6.144,-4.128 l -12.48,-22.944 c -1.824,-3.264 -2.592,-4.416 -2.592,-4.896 0,-0.48 0.384,-1.632 1.536,-3.552 l 11.52,-18.336 c 2.304,-3.744 -3.168,-5.28 -4.896,-5.28 -0.864,0 -1.824,0.384 -2.4,1.344 l -9.792,15.648 c -0.96,1.44 -1.056,2.112 -1.344,2.112 -0.288,0 -0.672,-0.864 -1.44,-2.112 l -6.815999,-11.808 c -2.592,-4.416 -3.456,-5.184 -5.088,-5.184 -3.456,0 -5.376,2.208 -5.376,4.032 0,1.92 0.672,3.456 1.344,4.608 l 10.08,16.704 c 0.672003,1.056 1.247999,2.208 1.247999,2.976 0,0.672 -0.575996,1.92 -1.535999,3.744 l -11.712,22.944 c -0.288,0.48 -0.384,0.96 -0.384,1.344 0,1.44 1.728,3.072 3.648,3.072 z m 28.319999,-54.816 c 0,0.384 -0.384,0.576 -0.768,0.576 -0.576,0 -1.056,-0.672 0,-2.4 0.768,-1.344 2.016,-1.632 2.784,-1.632 0.672,0 0.288,0.48 -0.576,1.344 -0.96,0.864 -1.44,1.632 -1.44,2.112 z m -28.031999,0.48 c 0,0.672 0.384,2.112 -0.192,2.304 -0.288,0.096 -0.48,0 -0.768,-0.48 -0.96,-1.824 -0.096,-4.992 1.056,-4.992 0.384,0 0.672,0.096 0.864,0.768 0.096,0.48 -0.96,0.864 -0.96,2.4 z m 30.719999,52.8 c 0,0.384 -0.576,0.288 -0.96,0.288 -1.536,-0.192 -3.072,-3.456 -2.976,-4.416 0,-0.384 0.288,-0.576 0.48,-0.576 0.48,0 1.536,2.88 2.4,3.36 0.768,0.48 1.152,1.152 1.056,1.344 z m -30.239999,-0.576 c 0.672,0.864 -0.288,0.864 -1.248,0.672 -1.248,-0.288 -2.304,-2.016 -1.44,-2.976 0.768,-0.768 1.536,-0.768 1.152,0.192 -0.288,0.672 1.152,1.728 1.536,2.112 z m 45.907959,1.824 c 6.816,0 7.488,-2.496 7.488,-4.416 0,-2.496 -0.864,-4.416 -3.552,-4.416 l -1.536,0.288 c -0.288,0 -0.48,0 -0.768,0 -1.344,0 -1.536,-2.688 -1.536,-9.696 v -18.048 h 3.36 c 2.016,0 2.784,-1.824 2.784,-4.32 0,-1.824 -0.864,-2.976 -3.168,-2.976 h -2.976 v -9.12 c 0,-4.8 -2.4,-6.624 -5.28,-6.624 -2.88,0 -4.608,1.536 -4.608,6.336 v 9.408 h -1.056 c -2.304,0 -2.976,1.344 -2.976,3.552 0,2.208 1.056,3.744 2.976,3.744 h 1.056 v 16.512 c 0,9.984 0,19.776 9.792,19.776 z m -7.296,-55.008 c -0.288,0.864 -0.384,2.784 -0.864,2.784 -0.288,0 -0.48,-0.576 -0.48,-2.016 0,-1.056 0.768,-3.744 2.016,-3.744 1.056,0 -0.192,1.632 -0.672,2.976 z m -4.608,14.304 c 0,1.152 0.48,2.88 -0.096,2.88 -0.672,0 -0.96,-1.248 -0.96,-2.112 0,-1.344 0.48,-2.496 1.152,-2.496 0.192,0 -0.096,1.056 -0.096,1.728 z m 7.392,35.904 c 0,0.384 -0.48,1.056 -0.864,1.056 -1.344,0 -2.688,-4.32 -2.688,-5.376 0,-0.672 -0.096,-2.112 0.672,-2.112 0.384,0 1.056,0.576 1.152,1.632 0.096,1.824 1.728,4.32 1.728,4.8 z m 30.64398,5.76 c 8.544,0 15.648,-6.528 15.648,-14.304 0,-4.032 -1.92,-6.624 -4.8,-6.624 -2.592,0 -4.416,2.016 -4.416,5.088 0,3.648 -2.592,6.432 -5.856,6.432 -4.512,0 -7.68,-3.84 -7.68,-12 0,-1.056 0.384,-1.344 1.632,-1.344 11.616,0 20.736,-10.272 21.312,-21.408 0.48,-9.504 -5.664,-16.608 -14.4,-16.608 -11.904,0 -20.544,13.344 -20.544,31.776 0,17.376 7.68,28.992 19.104,28.992 z m -12.48,-46.752 c -0.096,0.096 -0.384,0.096 -0.48,-0.384 -0.192,-2.88 5.088,-10.176 9.408,-10.464 0.672,-0.096 1.248,0.288 1.248,0.768 0.096,0.384 -0.576,0.768 -1.248,0.864 -3.84,0.384 -8.064,9.216 -8.928,9.216 z m 5.088,15.552 c -1.344,-2.016 2.304,-20.448 8.832,-20.448 2.976,0 5.184,2.976 5.184,7.104 0,6.528 -6.048,13.728 -12.672,13.728 -0.672,0 -1.152,-0.096 -1.344,-0.384 z m -6.336,-14.592 c 0.288,-0.096 0.384,0.192 0.48,0.48 0.192,0.864 -0.384,2.4 -1.056,2.4 -0.192,0.096 -0.288,-0.288 -0.384,-0.768 -0.096,-0.96 0.384,-2.016 0.96,-2.112 z m 35.25201,44.832 c 1.728,0 6.048,-0.48 6.048,-4.32 v -21.312 c 0,-12.96 2.304,-23.52 7.776,-23.52 3.456,0 4.896,2.592 4.896,15.84 v 30.048 c 0,1.44 1.44,3.264 4.896,3.264 3.456,0 5.376,-1.056 5.376,-2.976 v -31.2 c 0,-17.664 -3.552,-25.344 -11.712,-25.344 -9.312,0 -10.368,9.888 -11.328,9.888 -0.288,0 -0.384,-1.248 -0.384,-3.84 v -1.344 c 0,-3.36 -2.88,-4.32 -5.28,-4.32 -3.744,0 -4.608,1.536 -4.608,7.104 v 45.792 c 0,4.608 1.152,6.24 4.32,6.24 z m -2.4,-49.44 c -0.48,0 -0.768,-2.112 -0.768,-3.072 0,-0.864 0.384,-5.376 1.728,-5.376 0.192,0 0.288,0.48 0.288,0.768 0,0.192 -0.576,7.68 -1.248,7.68 z m 24.672,46.656 c 0,0.864 -0.48,1.344 -0.864,1.344 -0.96,0 -1.92,-1.632 -1.92,-4.224 0,-1.248 0.192,-2.4 0.768,-2.4 0.576,0 0.768,0.288 0.768,2.304 0,1.92 1.248,1.44 1.248,2.976 z m -22.368,0.288 c 0,0.768 -0.48,1.344 -0.768,1.344 -1.056,0 -2.016,-1.824 -2.016,-3.744 0,-1.44 0.288,-2.496 0.576,-2.496 0.384,0 0.672,0.768 0.672,2.016 0,1.824 1.536,1.728 1.536,2.88 z m 35.15609,2.496 h 8.352 c 16.224,0 23.52,-10.752 23.52,-28.8 0,-17.76 -7.104,-31.008 -16.704,-31.008 -6.816,0 -8.928,6.816 -9.984,6.816 -0.384,0 -0.288,-1.248 -0.288,-1.92 0,-2.688 -1.632,-4.224 -4.416,-4.224 -3.648,0 -5.184,2.496 -5.184,8.16 v 41.088 c 0,7.488 1.152,9.888 4.704,9.888 z m -1.248,-50.496 c 0,0.864 -0.672,1.536 -1.056,1.536 -0.672,0 -1.056,-1.056 -1.056,-2.496 0,-3.168 1.728,-5.568 3.456,-5.568 0.672,0 0.96,0.096 0.96,0.48 0,0.576 -2.784,2.016 -2.784,4.416 0,1.056 0.48,1.632 0.48,1.632 z m 12.864,41.76 h -2.688 c -2.4,0 -2.688,-0.384 -2.688,-3.456 v -29.952 c 0,-5.088 3.552,-8.352 6.624,-8.352 4.992,0 7.968,9.504 7.968,21.984 0,12.192 -3.552,19.776 -9.216,19.776 z m -13.824,1.728 c -0.768,0 -0.864,-1.728 -0.864,-7.2 0,-3.744 0.384,-4.032 0.672,-4.032 0.384,0 0.768,0.384 0.768,4.032 0,1.152 0,7.2 -0.576,7.2 z m 0,1.344 c 0.672,0 0.672,0.192 0.672,1.056 0,0.672 -0.288,1.248 -0.576,1.248 -0.384,0 -0.864,-0.192 -0.864,-1.248 0,-0.576 0.288,-1.056 0.768,-1.056 z m 53.01198,6.624 c 8.544,0 15.648,-6.528 15.648,-14.304 0,-4.032 -1.92,-6.624 -4.8,-6.624 -2.592,0 -4.416,2.016 -4.416,5.088 0,3.648 -2.592,6.432 -5.856,6.432 -4.512,0 -7.68,-3.84 -7.68,-12 0,-1.056 0.384,-1.344 1.632,-1.344 11.616,0 20.736,-10.272 21.312,-21.408 0.48,-9.504 -5.664,-16.608 -14.4,-16.608 -11.904,0 -20.544,13.344 -20.544,31.776 0,17.376 7.68,28.992 19.104,28.992 z m -12.48,-46.752 c -0.096,0.096 -0.384,0.096 -0.48,-0.384 -0.192,-2.88 5.088,-10.176 9.408,-10.464 0.672,-0.096 1.248,0.288 1.248,0.768 0.096,0.384 -0.576,0.768 -1.248,0.864 -3.84,0.384 -8.064,9.216 -8.928,9.216 z m 5.088,15.552 c -1.344,-2.016 2.304,-20.448 8.832,-20.448 2.976,0 5.184,2.976 5.184,7.104 0,6.528 -6.048,13.728 -12.672,13.728 -0.672,0 -1.152,-0.096 -1.344,-0.384 z m -6.336,-14.592 c 0.288,-0.096 0.384,0.192 0.48,0.48 0.192,0.864 -0.384,2.4 -1.056,2.4 -0.192,0.096 -0.288,-0.288 -0.384,-0.768 -0.096,-0.96 0.384,-2.016 0.96,-2.112 z m 35.15601,44.832 h 8.352 c 16.224,0 23.52,-10.752 23.52,-28.8 0,-17.76 -7.104,-31.008 -16.704,-31.008 -6.816,0 -8.928,6.816 -9.984,6.816 -0.384,0 -0.288,-1.248 -0.288,-1.92 0,-2.688 -1.632,-4.224 -4.416,-4.224 -3.648,0 -5.184,2.496 -5.184,8.16 v 41.088 c 0,7.488 1.152,9.888 4.704,9.888 z m -1.248,-50.496 c 0,0.864 -0.672,1.536 -1.056,1.536 -0.672,0 -1.056,-1.056 -1.056,-2.496 0,-3.168 1.728,-5.568 3.456,-5.568 0.672,0 0.96,0.096 0.96,0.48 0,0.576 -2.784,2.016 -2.784,4.416 0,1.056 0.48,1.632 0.48,1.632 z m 12.864,41.76 h -2.688 c -2.4,0 -2.688,-0.384 -2.688,-3.456 v -29.952 c 0,-5.088 3.552,-8.352 6.624,-8.352 4.992,0 7.968,9.504 7.968,21.984 0,12.192 -3.552,19.776 -9.216,19.776 z m -13.824,1.728 c -0.768,0 -0.864,-1.728 -0.864,-7.2 0,-3.744 0.384,-4.032 0.672,-4.032 0.384,0 0.768,0.384 0.768,4.032 0,1.152 0,7.2 -0.576,7.2 z m 0,1.344 c 0.672,0 0.672,0.192 0.672,1.056 0,0.672 -0.288,1.248 -0.576,1.248 -0.384,0 -0.864,-0.192 -0.864,-1.248 0,-0.576 0.288,-1.056 0.768,-1.056 z m 67.14394,5.664 h 5.28 c 12.096,0 22.56,-12.48 22.56,-31.296 0,-17.664 -10.272,-28.032 -21.216,-28.032 h -4.32 c -5.952,0 -11.04,2.784 -11.04,9.792 v 41.088 c 0,6.624 4.128,8.448 8.736,8.448 z m 3.552,-9.216 c -0.864,0 -1.344,-0.864 -1.344,-3.456 v -33.408 c 0,-3.168 0.48,-3.84 2.688,-3.84 h 1.44 c 6.048,0 10.368,6.24 10.368,18.336 0,13.536 -5.184,22.368 -11.904,22.368 z m -9.312,1.248 c -0.96,0 -0.864,-1.824 -0.864,-7.488 0,-3.84 0.48,-5.28 0.864,-5.28 0.384,0 0.576,1.632 0.576,5.28 0,1.248 0.48,7.488 -0.576,7.488 z m -0.096,1.344 c 0.672,0 0.768,0.192 0.768,1.056 0,0.768 -0.288,1.728 -0.672,1.728 -0.384,0 -0.768,-0.672 -0.768,-1.728 0,-0.576 0.192,-1.056 0.672,-1.056 z m 47.63606,7.392 c 8.928,0 10.752,-11.712 11.904,-11.712 0.288,0 0.48,0.864 0.48,2.496 0,5.376 2.112,9.216 5.184,9.216 2.688,0 4.608,-3.072 4.608,-7.584 0,-2.4 -0.576,-7.584 -0.576,-12.768 v -37.248 c 0,-1.728 -1.92,-3.072 -4.32,-3.072 -4.8,0 -3.936,5.568 -4.704,5.568 -0.768,0 -2.784,-5.664 -10.08,-5.28 -10.176,0.576 -16.128,12.192 -16.128,31.68 0,17.952 5.088,28.704 13.632,28.704 z m 14.784,-54.24 c -0.384,0 -0.672,-0.768 -0.672,-1.728 0,-2.016 1.344,-3.456 2.016,-3.456 0.192,0 0.384,0.096 0.384,0.48 0,0.576 -0.48,1.536 -0.864,2.784 -0.192,0.864 -0.384,1.92 -0.864,1.92 z m -12.48,44.832 c -2.88,0 -5.664,-10.272 -5.664,-20.736 0,-11.712 3.456,-21.408 7.68,-21.408 3.552,0 6.72,7.2 6.72,15.648 0,10.848 -5.184,26.496 -8.736,26.496 z m -6.912,5.472 c -1.056,0 -2.88,-2.784 -3.84,-5.376 -0.864,-2.496 -0.768,-4.512 -0.192,-4.512 0.768,0 1.056,2.688 1.44,3.744 0.576,2.016 3.168,4.512 3.36,5.184 0.096,0.384 -0.288,0.96 -0.768,0.96 z m 21.984,1.056 c 0,0.384 -0.48,0.864 -0.96,0.864 -1.152,0 -2.592,-2.688 -2.592,-4.704 0,-0.768 0.192,-1.152 0.672,-1.152 0.672,0 0.672,1.056 0.672,1.056 0,1.92 2.208,3.072 2.208,3.936 z m -19.584,0.48 c -0.384,0 -0.768,-0.672 -0.768,-1.248 0,-0.672 0.48,-1.152 1.152,-1.152 1.536,0 0.48,2.4 -0.384,2.4 z m 41.87609,2.208 c 10.656,0 17.28,-6.24 17.28,-17.472 v -35.616 c 0,-5.472 -3.84,-7.104 -5.856,-7.104 -2.688,0 -4.608,1.92 -4.608,5.952 v 10.272 c 0,7.584 -4.512,15.072 -9.12,15.072 -2.784,0 -4.704,-0.96 -4.704,-10.464 v -16.032 c 0,-2.784 -2.208,-4.608 -5.952,-4.608 -2.88,0 -4.32,2.016 -4.32,4.32 v 15.36 c 0,16.32 7.296,20.736 13.44,20.736 7.392,0 10.56,-7.584 10.656,-7.584 0.192,0 0.192,2.4 0.192,3.84 v 4.224 c 0,7.392 -1.824,10.944 -7.008,10.944 -3.456,0 -6.432,-1.92 -6.432,-5.376 0,-1.824 -1.824,-2.88 -3.744,-2.88 -1.92,0 -3.264,2.304 -3.264,5.28 0,6.624 5.952,11.136 13.44,11.136 z m -13.536,-58.08 c -0.672,0.576 -1.344,3.936 -2.112,3.936 -0.192,0 -0.48,-0.192 -0.48,-1.248 0,-0.672 0.864,-3.84 2.208,-3.84 0.48,0 0.864,0.768 0.384,1.152 z m 23.136,1.44 c -0.672,1.056 -0.576,2.592 -1.056,2.592 -0.288,0 -0.672,-0.576 -0.672,-1.056 0,-1.44 1.536,-4.128 2.592,-4.128 0.768,0 -0.192,1.536 -0.864,2.592 z m -21.024,30.048 c 0.384,0.384 0.96,1.056 0.96,1.632 0,0.672 -0.48,0.96 -0.672,0.96 -0.864,0 -3.264,-4.416 -3.264,-5.952 0,-1.056 0,-1.824 0.48,-1.824 0.192,0 0.288,1.056 0.768,2.4 0.384,0.96 0.96,2.016 1.728,2.784 z m -0.48,18.336 c -0.288,0 -0.384,-1.056 -0.384,-2.4 0,-2.016 1.056,-4.608 2.016,-4.608 0.672,0 0.192,1.824 0,2.208 -1.056,2.208 -0.384,4.8 -1.632,4.8 z m -233.63217,75.93353 c 8.256,0 15.264,-5.952 15.264,-13.056 0,-3.264 -1.536,-5.472 -3.84,-5.472 -2.592,0 -5.376,2.592 -5.376,5.088 0,2.304 -2.208,4.032 -4.992,4.032 -5.856,0 -8.928,-7.296 -8.928,-19.392 0,-13.44 3.936,-22.848 10.272,-22.848 2.4,0 3.648,1.344 3.744,3.936 0.096,3.456 2.304,6.048 5.28,6.048 2.592,0 3.936,-1.92 3.936,-5.472 0,-7.584 -6.336,-13.632 -14.304,-13.632 -11.904,0 -20.352,13.632 -20.352,31.776 0,17.184 7.584,28.992 19.296,28.992 z m -11.232,-50.208 c -0.096,0 -0.384,0 -0.384,-0.48 0.288,-2.88 6.816,-9.024 11.136,-8.64 0.672,0.096 1.152,0.48 1.056,0.96 0,0.384 -0.672,0.768 -1.344,0.672 -3.936,-0.288 -9.6,7.584 -10.464,7.488 z m -0.96,1.056 c 1.056,0.096 -0.192,2.88 -1.056,2.784 -0.192,0 -0.288,-0.384 -0.288,-0.864 0.096,-0.96 0.768,-1.92 1.344,-1.92 z m 35.15597,48.192 h 4.224 c 2.592,0 4.224,-1.248 4.224,-4.512 0,-2.4 -1.056,-4.512 -2.976,-4.512 h -1.056 c -1.152,0 -1.248,-1.536 -1.248,-4.128 v -41.184 c 0,-1.728 -1.248,-4.992 -4.992,-4.992 -3.744,0 -5.088,2.496 -5.088,5.28 v 43.2 c 0,6.336 0.384,10.848 6.912,10.848 z m -4.992,-50.208 c -0.288,0 -0.768,-0.768 -0.768,-2.688 0,-3.456 1.536,-5.376 2.976,-5.376 1.056,0 0.384,1.44 -0.288,2.592 -0.96,1.632 -1.248,5.472 -1.92,5.472 z m 25.74803,50.976 c 8.928,0 10.752,-11.712 11.904,-11.712 0.288,0 0.48,0.864 0.48,2.496 0,5.376 2.112,9.216 5.184,9.216 2.688,0 4.608,-3.072 4.608,-7.584 0,-2.4 -0.576,-7.584 -0.576,-12.768 v -37.248 c 0,-1.728 -1.92,-3.072 -4.32,-3.072 -4.8,0 -3.936,5.568 -4.704,5.568 -0.768,0 -2.784,-5.664 -10.08,-5.28 -10.176,0.576 -16.128,12.192 -16.128,31.68 0,17.952 5.088,28.704 13.632,28.704 z m 14.784,-54.24 c -0.384,0 -0.672,-0.768 -0.672,-1.728 0,-2.016 1.344,-3.456 2.016,-3.456 0.192,0 0.384,0.096 0.384,0.48 0,0.576 -0.48,1.536 -0.864,2.784 -0.192,0.864 -0.384,1.92 -0.864,1.92 z m -12.48,44.832 c -2.88,0 -5.664,-10.272 -5.664,-20.736 0,-11.712 3.456,-21.408 7.68,-21.408 3.552,0 6.72,7.2 6.72,15.648 0,10.848 -5.184,26.496 -8.736,26.496 z m -6.912,5.472 c -1.056,0 -2.88,-2.784 -3.84,-5.376 -0.864,-2.496 -0.768,-4.512 -0.192,-4.512 0.768,0 1.056,2.688 1.44,3.744 0.576,2.016 3.168,4.512 3.36,5.184 0.096,0.384 -0.288,0.96 -0.768,0.96 z m 21.984,1.056 c 0,0.384 -0.48,0.864 -0.96,0.864 -1.152,0 -2.592,-2.688 -2.592,-4.704 0,-0.768 0.192,-1.152 0.672,-1.152 0.672,0 0.672,1.056 0.672,1.056 0,1.92 2.208,3.072 2.208,3.936 z m -19.584,0.48 c -0.384,0 -0.768,-0.672 -0.768,-1.248 0,-0.672 0.48,-1.152 1.152,-1.152 1.536,0 0.48,2.4 -0.384,2.4 z m 40.6281,2.496 c 9.312,0 15.936,-6.336 15.936,-15.36 0,-4.896 -2.688,-9.312 -11.04,-17.856 -6.816,-7.008 -8.736,-10.08 -8.736,-14.016 0,-3.168 1.248,-4.608 4.032,-4.608 2.784,0 5.376,3.456 5.376,10.944 0,2.208 2.304,3.552 3.84,3.552 3.264,0 5.856,-3.744 5.856,-7.584 0,-7.2 -6.048,-15.84 -14.688,-15.84 -9.408,0 -15.264,5.376 -15.264,14.112 0,5.184 3.552,10.752 12.768,19.968 3.456,3.456 7.104,6.816 7.104,12.288 0,4.128 -2.112,6.24 -6.144,6.24 -3.936,0 -6.432,-7.872 -6.432,-12.576 0,-3.36 -0.864,-4.704 -3.072,-4.8 -3.456,-0.192 -6.048,2.688 -6.048,6.624 0,11.904 8.544,18.912 16.512,18.912 z m -9.12,-52.992 c -0.768,1.248 -0.96,2.496 -1.632,2.4 -0.384,0 -0.576,-0.192 -0.576,-0.576 0.192,-2.208 4.032,-6.816 5.664,-6.624 0.384,0 0,1.056 -0.96,1.728 -0.96,0.768 -2.016,2.208 -2.496,3.072 z m -1.536,4.32 c -0.096,0.384 -0.384,0.672 -0.672,0.672 -0.48,-0.096 -0.672,-0.288 -0.672,-0.576 0,-0.288 0.384,-0.768 0.768,-0.768 0.288,0 0.576,0.288 0.576,0.672 z m -2.304,29.568 c -0.672,1.728 0,3.264 -0.672,3.264 -0.288,0 -0.576,-0.48 -0.768,-0.96 -0.96,-3.072 0.672,-6.816 2.784,-6.624 0.288,0 0.288,0.192 0.288,0.48 -0.096,1.056 -0.96,2.112 -1.632,3.84 z m 45.14005,19.104 c 9.312,0 15.936,-6.336 15.936,-15.36 0,-4.896 -2.688,-9.312 -11.04,-17.856 -6.816,-7.008 -8.736,-10.08 -8.736,-14.016 0,-3.168 1.248,-4.608 4.032,-4.608 2.784,0 5.376,3.456 5.376,10.944 0,2.208 2.304,3.552 3.84,3.552 3.264,0 5.856,-3.744 5.856,-7.584 0,-7.2 -6.048,-15.84 -14.688,-15.84 -9.408,0 -15.264,5.376 -15.264,14.112 0,5.184 3.552,10.752 12.768,19.968 3.456,3.456 7.104,6.816 7.104,12.288 0,4.128 -2.112,6.24 -6.144,6.24 -3.936,0 -6.432,-7.872 -6.432,-12.576 0,-3.36 -0.864,-4.704 -3.072,-4.8 -3.456,-0.192 -6.048,2.688 -6.048,6.624 0,11.904 8.544,18.912 16.512,18.912 z m -9.12,-52.992 c -0.768,1.248 -0.96,2.496 -1.632,2.4 -0.384,0 -0.576,-0.192 -0.576,-0.576 0.192,-2.208 4.032,-6.816 5.664,-6.624 0.384,0 0,1.056 -0.96,1.728 -0.96,0.768 -2.016,2.208 -2.496,3.072 z m -1.536,4.32 c -0.096,0.384 -0.384,0.672 -0.672,0.672 -0.48,-0.096 -0.672,-0.288 -0.672,-0.576 0,-0.288 0.384,-0.768 0.768,-0.768 0.288,0 0.576,0.288 0.576,0.672 z m -2.304,29.568 c -0.672,1.728 0,3.264 -0.672,3.264 -0.288,0 -0.576,-0.48 -0.768,-0.96 -0.96,-3.072 0.672,-6.816 2.784,-6.624 0.288,0 0.288,0.192 0.288,0.48 -0.096,1.056 -0.96,2.112 -1.632,3.84 z m 36.11607,7.488 c 4.512,0 5.28,-8.736 5.28,-26.592 0,-19.584 -0.672,-21.792 -3.648,-21.792 -5.856,0 -5.952,0.96 -5.952,25.728 0,17.568 0.192,22.656 4.32,22.656 z m -1.248,-46.176 c 1.056,0 0.384,2.4 0.288,4.608 -0.096,1.536 0.672,3.744 -0.864,3.744 -0.864,0 -0.96,-2.016 -0.96,-3.648 0,-3.168 1.056,-4.704 1.536,-4.704 z m 1.344,57.696 c 2.592,0 4.512,-1.44 4.512,-4.416 0,-2.688 -1.632,-4.992 -4.512,-4.992 -2.784,0 -4.032,2.592 -4.032,4.992 0,2.688 1.632,4.416 4.032,4.416 z m -1.728,-4.992 c -0.096,0.768 -0.192,2.016 -0.672,2.016 -0.288,0 -0.48,-0.48 -0.48,-0.96 0,-1.44 0.672,-3.84 1.536,-3.84 0.672,0 -0.288,1.344 -0.384,2.784 z"
       id="text3"
       aria-label="Extended Day Class!" />
  </g>
</svg>
